<svg xmlns="http://www.w3.org/2000/svg" viewBox="0 0 24 24" fill="#61DAFB"><circle cx="12" cy="12" r="2.5" fill="#61DAFB"/><path d="M12 2.5c-4.5 0-7.8 2.6-7.8 5.8 0 1.5 1.1 3.1 3.1 4.5-2 1.4-3.1 3-3.1 4.5 0 3.2 3.3 5.8 7.8 5.8s7.8-2.6 7.8-5.8c0-1.5-1.1-3.1-3.1-4.5 2-1.4 3.1-3 3.1-4.5 0-3.2-3.3-5.8-7.8-5.8zM12 7.3c1.8 0 3.3.7 4.4 1.6-1.1 1-2.6 1.6-4.4 1.6s-3.3-.6-4.4-1.6c1.1-1 2.6-1.6 4.4-1.6zm-5.6 8.2c0-1 .8-2.2 2.4-3.2.5.9 1.1 1.7 1.9 2.4s1.8 1.3 2.9 1.7c-1.1.4-2.2.7-3.4.7-1.6 0-2.9-.5-3.8-1.6zm5.6 3.2c-1.8 0-3.3-.7-4.4-1.6 1.1-1 2.6-1.6 4.4-1.6s3.3.6 4.4 1.6c-1.1 1-2.6 1.6-4.4 1.6zm5.6-3.2c-.9 1.1-2.2 1.6-3.8 1.6-1.2 0-2.3-.3-3.4-.7 1.1-.4 2.1-1 2.9-1.7s1.4-1.5 1.9-2.4c1.6 1 2.4 2.2 2.4 3.2zM12 16.4c-1.8 0-3.3-.7-4.4-1.6 1.1-1 2.6-1.6 4.4-1.6s3.3.6 4.4 1.6c-1.1 1-2.6 1.6-4.4 1.6z" fill="none" stroke="#61DAFB" stroke-width="0.5"/></svg>